<svg id="Capa_1" enable-background="new 0 0 512.181 512.181" height="512" viewBox="0 0 512.181 512.181" width="512" xmlns="http://www.w3.org/2000/svg"><g><path d="m74.251 247.001-49.5 49.5 21.214 21.215-28.288 28.287 148.501 148.501 28.288-28.288 21.214 21.215 49.5-49.501z"/><path d="m346.003 17.677-28.287 28.288-21.215-21.214-49.5 49.5 190.929 190.929 49.501-49.5-21.215-21.214 28.288-28.288z"/><path d="m434.144 3.033h50.003v100.005h-50.003z" transform="matrix(.707 -.707 .707 .707 96.979 340.199)"/><path d="m28.034 409.143h50.003v100.005h-50.003z" transform="matrix(.707 -.707 .707 .707 -309.131 171.983)"/><path d="m163.938 206.088h184.306v100.005h-184.306z" transform="matrix(.707 -.707 .707 .707 -106.076 256.091)"/></g></svg>